<?xml version="1.0" encoding="utf-8"?>
<!-- Generator: Adobe Illustrator 24.3.0, SVG Export Plug-In . SVG Version: 6.00 Build 0)  -->
<svg version="1.1" id="Layer_1" xmlns="http://www.w3.org/2000/svg" xmlns:xlink="http://www.w3.org/1999/xlink" x="0px" y="0px"
	 viewBox="0 0 32 32" style="enable-background:new 0 0 32 32;" xml:space="preserve">
<style type="text/css">
	.st0{fill:none;stroke:#ffffff;stroke-width:0.8196;stroke-linecap:round;stroke-miterlimit:10;}
	.st1{display:none;fill:none;stroke:#ffffff;stroke-width:0.8196;stroke-linecap:round;stroke-miterlimit:10;}
	.st2{fill:none;stroke:#ffffff;stroke-linecap:round;stroke-miterlimit:10;}
</style>
<g>
	<g>
		<line class="st0" x1="17.94" y1="10.27" x2="19.56" y2="13.14"/>
		<g>
			<line class="st0" x1="11.44" y1="10.27" x2="17.94" y2="10.27"/>
			<g>
				<path class="st1" d="M16.69,10.27h-4c-0.77,0-1.49,0.42-1.87,1.09l-2.03,3.58c-0.37,0.66-0.37,1.46,0,2.12l2.03,3.58
					c0.38,0.67,1.1,1.09,1.87,1.09h4c0.77,0,1.49-0.42,1.87-1.09l2.03-3.58c0.37-0.66,0.37-1.46,0-2.12l-2.03-3.58
					C18.17,10.69,17.46,10.27,16.69,10.27z"/>
				<line class="st0" x1="11.44" y1="10.27" x2="17.94" y2="21.73"/>
			</g>
			<line class="st0" x1="11.44" y1="21.73" x2="17.94" y2="21.73"/>
		</g>
	</g>
	<line class="st0" x1="9.81" y1="18.86" x2="11.44" y2="21.73"/>
</g>
<ellipse class="st2" cx="14.69" cy="16" rx="9.3" ry="9.72"/>
</svg>
